<svg xmlns="http://www.w3.org/2000/svg" xmlns:xlink="http://www.w3.org/1999/xlink" viewBox="0 0 1000 1000"><defs><style>.cls-1{fill:url(#linear-gradient);}.cls-2{fill:#2197c7;}</style><linearGradient id="linear-gradient" x1="500.5" y1="265" x2="500.5" y2="736" gradientUnits="userSpaceOnUse"><stop offset="0" stop-color="#e18700"/><stop offset="1" stop-color="#ab1411"/></linearGradient></defs><title>Logo</title><g id="Hourglass"><path class="cls-1" d="M352,265V389L463.37,500.5,352,612.05V736H649v-124L537.63,500.5,649,389V265ZM599,624.08V686H401V624.08L500,525ZM500,475l-99-99.07V314H599v61.92Z"/></g><g id="Target"><polygon class="cls-2" points="532 145 532 0 468 0 468 144.61 468 208 792 208 792 351 855 351 855 145 532 145"/><polygon class="cls-2" points="145 145 145 468 0 468 0 532 144.74 532 208 532 208 208 351 208 351 145 145 145"/><polygon class="cls-2" points="855 468 792 468 792 792 649 792 649 855 855 855 855 532 1000 532 1000 468 855 468"/><polygon class="cls-2" points="208 792 208 649 145 649 145 855 468 855 468 999.25 468 999.5 468 1000 532 1000 532 999.5 532 999.25 532 855.26 532 854.75 532 792 208 792"/></g></svg>