<svg xmlns="http://www.w3.org/2000/svg" xmlns:xlink="http://www.w3.org/1999/xlink" viewBox="0 0 1000 1000"><defs><style>.cls-1{fill:#455a64;}.cls-2{fill:url(#linear-gradient);}.cls-3{fill:#2197c7;}</style><linearGradient id="linear-gradient" x1="500" y1="264.71" x2="500" y2="735.3" gradientUnits="userSpaceOnUse"><stop offset="0" stop-color="#e18700"/><stop offset="1" stop-color="#ab1411"/></linearGradient></defs><title>LogoBG</title><g id="Background"><rect class="cls-1" x="208.42" y="208.42" width="583.16" height="583.16"/></g><g id="Hourglass"><path class="cls-2" d="M351.71,264.71V388.55L462.93,500,351.71,611.46V735.3H648.29V611.46L537.07,500,648.29,388.55V264.71ZM598.86,623.84v61.92H401.14V623.84L500,524.77ZM500,475.24l-98.86-99.08V314.25H598.86v61.91Z" transform="translate(0 0)"/></g><g id="Target"><polygon class="cls-3" points="531.95 145.03 531.95 0 468.05 0 468.05 145.03 468.05 208.42 791.58 208.42 791.58 351.42 854.97 351.42 854.97 145.03 531.95 145.03"/><polygon class="cls-3" points="145.03 145.03 145.03 468.05 0 468.05 0 531.95 145.03 531.95 208.42 531.95 208.42 208.42 351.42 208.42 351.42 145.03 145.03 145.03"/><polygon class="cls-3" points="854.97 468.05 791.58 468.05 791.58 791.58 648.58 791.58 648.58 854.97 854.97 854.97 854.97 531.95 1000 531.95 1000 468.05 854.97 468.05"/><polygon class="cls-3" points="208.42 791.58 208.42 648.58 145.03 648.58 145.03 854.97 468.05 854.97 468.05 999.24 468.05 999.49 468.05 1000 531.95 1000 531.95 999.49 531.95 999.24 531.95 854.97 531.95 854.46 531.95 791.58 208.42 791.58"/></g></svg>